<svg viewBox="0 0 40 19" fill="none" xmlns="http://www.w3.org/2000/svg">
<rect width="40" height="19" rx="4" fill="#5E76F1"/>
<path d="M11.68 11.024H9.352L8.952 12.16H8L9.992 6.592H11.048L13.04 12.16H12.08L11.68 11.024ZM11.424 10.28L10.52 7.696L9.608 10.28H11.424Z" fill="white" fill-opacity="0.8"/>
<path d="M13.6021 9.952C13.6021 9.49867 13.6928 9.10133 13.8741 8.76C14.0608 8.41333 14.3168 8.14667 14.6421 7.96C14.9675 7.77333 15.3408 7.68 15.7621 7.68C16.2955 7.68 16.7355 7.808 17.0821 8.064C17.4341 8.31467 17.6715 8.67467 17.7941 9.144H16.8101C16.7301 8.92533 16.6021 8.75467 16.4261 8.632C16.2501 8.50933 16.0288 8.448 15.7621 8.448C15.3888 8.448 15.0901 8.58133 14.8661 8.848C14.6475 9.10933 14.5381 9.47733 14.5381 9.952C14.5381 10.4267 14.6475 10.7973 14.8661 11.064C15.0901 11.3307 15.3888 11.464 15.7621 11.464C16.2901 11.464 16.6395 11.232 16.8101 10.768H17.7941C17.6661 11.216 17.4261 11.5733 17.0741 11.84C16.7221 12.1013 16.2848 12.232 15.7621 12.232C15.3408 12.232 14.9675 12.1387 14.6421 11.952C14.3168 11.76 14.0608 11.4933 13.8741 11.152C13.6928 10.8053 13.6021 10.4053 13.6021 9.952Z" fill="white" fill-opacity="0.8"/>
<path d="M19.767 8.496V10.936C19.767 11.1013 19.8043 11.2213 19.879 11.296C19.959 11.3653 20.0923 11.4 20.279 11.4H20.839V12.16H20.119C19.7083 12.16 19.3937 12.064 19.175 11.872C18.9563 11.68 18.847 11.368 18.847 10.936V8.496H18.327V7.752H18.847V6.656H19.767V7.752H20.839V8.496H19.767Z" fill="white" fill-opacity="0.8"/>
<path d="M22.1436 7.168C21.9782 7.168 21.8396 7.112 21.7276 7C21.6156 6.888 21.5596 6.74933 21.5596 6.584C21.5596 6.41867 21.6156 6.28 21.7276 6.168C21.8396 6.056 21.9782 6 22.1436 6C22.3036 6 22.4396 6.056 22.5516 6.168C22.6636 6.28 22.7196 6.41867 22.7196 6.584C22.7196 6.74933 22.6636 6.888 22.5516 7C22.4396 7.112 22.3036 7.168 22.1436 7.168ZM22.5916 7.752V12.16H21.6796V7.752H22.5916Z" fill="white" fill-opacity="0.8"/>
<path d="M25.7009 12.232C25.2849 12.232 24.9089 12.1387 24.5729 11.952C24.2369 11.76 23.9729 11.4933 23.7809 11.152C23.5889 10.8053 23.4929 10.4053 23.4929 9.952C23.4929 9.504 23.5916 9.10667 23.7889 8.76C23.9863 8.41333 24.2556 8.14667 24.5969 7.96C24.9383 7.77333 25.3196 7.68 25.7409 7.68C26.1623 7.68 26.5436 7.77333 26.8849 7.96C27.2263 8.14667 27.4956 8.41333 27.6929 8.76C27.8903 9.10667 27.9889 9.504 27.9889 9.952C27.9889 10.4 27.8876 10.7973 27.6849 11.144C27.4823 11.4907 27.2049 11.76 26.8529 11.952C26.5063 12.1387 26.1223 12.232 25.7009 12.232ZM25.7009 11.44C25.9356 11.44 26.1543 11.384 26.3569 11.272C26.5649 11.16 26.7329 10.992 26.8609 10.768C26.9889 10.544 27.0529 10.272 27.0529 9.952C27.0529 9.632 26.9916 9.36267 26.8689 9.144C26.7463 8.92 26.5836 8.752 26.3809 8.64C26.1783 8.528 25.9596 8.472 25.7249 8.472C25.4903 8.472 25.2716 8.528 25.0689 8.64C24.8716 8.752 24.7143 8.92 24.5969 9.144C24.4796 9.36267 24.4209 9.632 24.4209 9.952C24.4209 10.4267 24.5409 10.7947 24.7809 11.056C25.0263 11.312 25.3329 11.44 25.7009 11.44Z" fill="white" fill-opacity="0.8"/>
<path d="M31.1145 7.68C31.4612 7.68 31.7705 7.752 32.0425 7.896C32.3198 8.04 32.5358 8.25333 32.6905 8.536C32.8452 8.81867 32.9225 9.16 32.9225 9.56V12.16H32.0185V9.696C32.0185 9.30133 31.9198 9 31.7225 8.792C31.5252 8.57867 31.2558 8.472 30.9145 8.472C30.5732 8.472 30.3012 8.57867 30.0985 8.792C29.9012 9 29.8025 9.30133 29.8025 9.696V12.16H28.8905V7.752H29.8025V8.256C29.9518 8.07467 30.1412 7.93333 30.3705 7.832C30.6052 7.73067 30.8532 7.68 31.1145 7.68Z" fill="white" fill-opacity="0.8"/>
</svg>
