<svg viewBox="0 0 40 40" fill="none" xmlns="http://www.w3.org/2000/svg">
<path d="M40 20C40 21.3688 39.8625 22.7063 39.6 23.9977C39.3074 25.4402 37.9898 25.6432 37.4048 26.9547C36.8198 28.2662 36.9676 30.6863 36.1266 31.8305C32.4867 36.7844 26.6188 40 20 40C13.3812 40 7.51328 36.7844 3.87344 31.8305C3.42266 31.2164 4.61516 29.3772 4.23469 28.7123C3.19875 26.9006 0.828125 26.1086 0.4 23.9977C0.399219 23.9969 0.399219 23.9961 0.399219 23.9953C0.1375 22.7047 0 21.368 0 20C0 18.5109 0.163281 17.0602 0.471875 15.6641C0.471875 15.6633 0.471875 15.6625 0.472656 15.6617C1.01094 13.2258 1.99375 10.9563 3.33125 8.94375V8.94297C6.91484 3.55313 13.0422 0 20 0C26.9578 0 33.0859 3.55313 36.6687 8.94375C38.0062 10.9563 38.9891 13.2258 39.5273 15.6617C39.8367 17.0586 40 18.5102 40 20V20Z" fill="#FBC473"/>
<path d="M8.08813 31.2319C8.08813 31.2319 8.18517 35.0171 9.9322 35.7935C11.6792 36.57 11.4851 29.7761 11.4851 29.7761" fill="#2F373B"/>
<path d="M31.9114 31.2319C31.9114 31.2319 31.8144 35.0171 30.0674 35.7935C28.3203 36.57 28.5145 29.7761 28.5145 29.7761" fill="#2F373B"/>
<path d="M39.6001 23.9975C39.0149 26.8827 37.8087 29.542 36.1267 31.8303C25.3759 32.4483 14.6243 32.4483 3.87354 31.8303C2.19151 29.542 0.985256 26.8827 0.4001 23.9975C0.236819 21.2194 0.261038 18.4405 0.472756 15.6616C0.593069 14.06 0.775881 12.4584 1.02119 10.8569C1.18135 9.81392 2.04385 9.02095 3.09697 8.95767L3.33135 8.9436C14.4439 8.28345 25.5563 8.28345 36.6688 8.9436L36.9032 8.95767C37.9563 9.02095 38.8188 9.81392 38.979 10.8569C39.2243 12.4584 39.4071 14.06 39.5274 15.6616C39.7392 18.4405 39.7634 21.2194 39.6001 23.9975V23.9975Z" fill="#2AB885"/>
<path d="M3.57654 8.92896C3.10779 9.28755 2.7781 9.82114 2.68357 10.4375C1.68982 16.929 1.67029 23.4204 2.62498 29.911C1.58904 28.0993 0.828105 26.1086 0.39998 23.9977C0.399199 23.9969 0.399199 23.9961 0.399199 23.9954C0.23748 21.218 0.260917 18.4407 0.471855 15.6641C0.471855 15.6633 0.471855 15.6626 0.472636 15.6618C0.592949 14.0602 0.775761 12.4586 1.02107 10.8571C1.18123 9.81333 2.04373 9.02114 3.09685 8.95708L3.33123 8.94302C3.41326 8.93833 3.49451 8.93364 3.57654 8.92896V8.92896Z" fill="#63AF7D"/>
<path d="M11.8115 28.3417C9.30198 28.6684 6.79245 28.6684 4.28292 28.3417C3.5637 28.248 3.0112 27.6566 2.96839 26.9326C2.70683 22.5067 2.70683 18.0809 2.96839 13.6549C3.0112 12.9309 3.5637 12.3394 4.28292 12.2458C6.79245 11.9191 9.30198 11.9191 11.8115 12.2458C12.5307 12.3394 13.0832 12.9309 13.126 13.6549C13.3876 18.0808 13.3876 22.5066 13.126 26.9326C13.0833 27.6566 12.5308 28.248 11.8115 28.3417Z" fill="#2F373B"/>
<path d="M23.7644 28.3412C21.2549 28.6679 18.7453 28.6679 16.2358 28.3412C15.5166 28.2476 14.9641 27.6561 14.9213 26.9321C14.6597 22.5062 14.6597 18.0804 14.9213 13.6544C14.9641 12.9304 15.5166 12.3389 16.2358 12.2453C18.7453 11.9186 21.2549 11.9186 23.7644 12.2453C24.4836 12.339 25.0361 12.9304 25.0789 13.6544C25.3405 18.0803 25.3405 22.5061 25.0789 26.9321C25.0361 27.6561 24.4836 28.2476 23.7644 28.3412Z" fill="#2F373B"/>
<path d="M37.0313 26.9325C36.9887 27.6559 36.4359 28.2476 35.717 28.3411C35.649 28.3501 35.5802 28.3583 35.512 28.3673C35.1335 28.4137 34.755 28.4526 34.3765 28.4847C32.3134 28.6575 30.251 28.6096 28.1879 28.341C27.469 28.2475 26.9163 27.6558 26.8736 26.9324C26.6118 22.5063 26.6118 18.0801 26.8736 13.6546C26.9163 12.9305 27.4691 12.3388 28.1879 12.2453C28.8447 12.1593 29.5015 12.0965 30.1582 12.0561C30.5988 12.0284 31.0387 12.0112 31.4785 12.0038C32.0882 11.9941 32.6971 12.003 33.306 12.0322C33.6793 12.0494 34.0533 12.0741 34.4273 12.1063C34.8575 12.1429 35.2869 12.1893 35.717 12.2454C36.4359 12.3389 36.9886 12.9306 37.0313 13.6547C37.2931 18.0802 37.2931 22.5063 37.0313 26.9325V26.9325Z" fill="#2F373B"/>
<path d="M35.5121 28.3672C35.1336 28.4137 34.7551 28.4526 34.3766 28.4847C34.2606 28.1353 34.0677 27.8122 33.8043 27.5354C33.3174 27.0222 32.6598 26.7394 31.9529 26.7394C31.0463 26.7394 30.6521 26.8853 30.195 27.091C30.1322 27.1194 30.0948 27.1381 30.0888 27.1412C29.9003 27.2376 29.6728 27.2197 29.5016 27.0947C29.331 26.9698 29.2442 26.7596 29.2787 26.5501L30.0372 21.9751C30.0821 21.7044 30.3162 21.5054 30.5907 21.5054H34.417C34.7267 21.5054 34.978 21.7567 34.978 22.0664C34.978 22.3769 34.7267 22.6274 34.417 22.6274H31.0665L30.5451 25.7707C30.9296 25.6697 31.3612 25.6173 31.9529 25.6173C32.9703 25.6173 33.9165 26.0243 34.6182 26.7626C35.0551 27.2228 35.3588 27.7726 35.5121 28.3672V28.3672Z" fill="#F6F9F9"/>
<path d="M35.1501 15.1539H34.4133C34.4193 14.147 34.4245 13.0676 34.4275 12.1064C34.0534 12.0742 33.6794 12.0495 33.3062 12.0323C33.3032 12.9666 33.298 14.0528 33.2912 15.1539H29.7065C30.2683 14.1418 30.9049 13.0085 31.4787 12.0039C31.0388 12.0114 30.599 12.0286 30.1583 12.0563C29.2809 13.6024 28.4363 15.1307 28.2636 15.4441C28.1678 15.6177 28.1708 15.8294 28.2718 16.0007C28.3728 16.1712 28.556 16.276 28.755 16.276H33.2837C33.2776 17.131 33.2709 17.9659 33.2642 18.7161C33.2619 19.0258 33.5111 19.2794 33.8208 19.2823H33.8252C34.1326 19.2823 34.384 19.034 34.3862 18.7258C34.3885 18.4445 34.3967 17.4855 34.4057 16.2759H35.15C35.4605 16.2759 35.711 16.0253 35.711 15.7149C35.7111 15.4052 35.4605 15.1539 35.1501 15.1539V15.1539Z" fill="#F6F9F9"/>
<path d="M8.04711 14.4321C6.11414 14.4321 4.54102 16.0053 4.54102 17.9382V22.6487C4.54102 24.5817 6.11414 26.1548 8.04711 26.1548C9.98078 26.1548 11.5532 24.5817 11.5532 22.6487V17.9382C11.5531 16.0053 9.98078 14.4321 8.04711 14.4321V14.4321ZM10.4311 22.6487C10.4311 23.963 9.36211 25.0327 8.04711 25.0327C6.73281 25.0327 5.66312 23.963 5.66312 22.6487V17.9382C5.66312 16.6239 6.73281 15.5542 8.04711 15.5542C9.36219 15.5542 10.4311 16.6238 10.4311 17.9382V22.6487Z" fill="#F6F9F9"/>
<path d="M20 14.4321C18.067 14.4321 16.4939 16.0053 16.4939 17.9382V22.6487C16.4939 24.5817 18.067 26.1548 20 26.1548C21.933 26.1548 23.5061 24.5817 23.5061 22.6487V17.9382C23.5061 16.0053 21.933 14.4321 20 14.4321V14.4321ZM22.3841 22.6487C22.3841 23.963 21.3144 25.0327 20.0001 25.0327C18.6858 25.0327 17.6161 23.963 17.6161 22.6487V17.9382C17.6161 16.6239 18.6858 15.5542 20.0001 15.5542C21.3144 15.5542 22.3841 16.6238 22.3841 17.9382V22.6487Z" fill="#F6F9F9"/>
<path d="M8.04724 28.9592C6.77341 28.9592 5.49958 28.8769 4.23466 28.7122C3.33786 28.5954 2.64833 27.8561 2.59505 26.9542C2.33388 22.5344 2.33388 18.0523 2.59505 13.6324C2.64833 12.7306 3.33786 11.9912 4.23466 11.8745C6.7645 11.5451 9.32997 11.5451 11.8598 11.8745C12.7565 11.9912 13.4461 12.7305 13.4994 13.6324C13.7606 18.0523 13.7606 22.5344 13.4994 26.9542C13.4461 27.8561 12.7565 28.5954 11.8598 28.7122C10.5949 28.877 9.32106 28.9592 8.04724 28.9592V28.9592ZM8.04724 12.3756C6.80567 12.3756 5.56411 12.4558 4.33122 12.6163C3.79005 12.6867 3.37396 13.1326 3.34177 13.6766C3.08231 18.0671 3.08231 22.5196 3.34177 26.9101C3.37388 27.454 3.79005 27.8999 4.33122 27.9704C6.797 28.2914 9.29747 28.2914 11.7633 27.9704C12.3044 27.8999 12.7205 27.454 12.7527 26.9101C13.0122 22.5196 13.0122 18.0671 12.7527 13.6766C12.7205 13.1327 12.3044 12.6867 11.7633 12.6163C10.5304 12.4558 9.2888 12.3756 8.04724 12.3756Z" fill="#63AF7D"/>
<path d="M19.9999 28.9592C18.726 28.9592 17.4522 28.8769 16.1873 28.7122C15.2906 28.5955 14.601 27.8561 14.5477 26.9542C14.2865 22.5344 14.2865 18.0523 14.5477 13.6324C14.601 12.7305 15.2906 11.9912 16.1873 11.8745C18.7171 11.5451 21.2826 11.5451 23.8125 11.8745C24.7092 11.9912 25.3988 12.7305 25.4521 13.6324C25.7132 18.0523 25.7132 22.5344 25.4521 26.9542C25.3987 27.8561 24.7092 28.5955 23.8125 28.7122C22.5475 28.877 21.2737 28.9592 19.9999 28.9592V28.9592ZM19.9999 12.3756C18.7583 12.3756 17.5167 12.4558 16.2839 12.6163C15.7427 12.6867 15.3266 13.1326 15.2944 13.6766C15.035 18.0671 15.035 22.5196 15.2944 26.9101C15.3266 27.454 15.7427 27.9 16.2839 27.9704C18.7496 28.2914 21.25 28.2914 23.7159 27.9704C24.2571 27.8999 24.6732 27.454 24.7053 26.9101C24.9648 22.5196 24.9648 18.0671 24.7053 13.6766C24.6732 13.1327 24.2571 12.6867 23.7159 12.6163C22.483 12.4558 21.2414 12.3756 19.9999 12.3756Z" fill="#63AF7D"/>
<path d="M31.9599 28.9595C30.6845 28.9595 29.407 28.8768 28.1399 28.712C27.2431 28.5953 26.5537 27.8562 26.5006 26.9545C26.2391 22.5343 26.2391 18.0521 26.5006 13.6326C26.5537 12.7306 27.2431 11.9911 28.14 11.8745C28.7988 11.7881 29.4703 11.7237 30.1356 11.6827C30.5738 11.6552 31.0238 11.6374 31.4725 11.6298C32.0956 11.6198 32.7186 11.6295 33.3242 11.6586C33.7002 11.6759 34.0824 11.7011 34.4597 11.7336C34.8913 11.7703 35.3308 11.8177 35.7656 11.8745C36.6624 11.9911 37.3518 12.7306 37.405 13.6327C37.6665 18.0521 37.6665 22.5342 37.405 26.9545C37.3518 27.8561 36.6624 28.5952 35.7656 28.7119L35.5611 28.7381C35.183 28.7844 34.7963 28.8244 34.4085 28.8573C33.5956 28.9254 32.7781 28.9595 31.9599 28.9595V28.9595ZM31.946 12.374C31.7924 12.374 31.6386 12.3752 31.4848 12.3777C31.0478 12.3851 30.6094 12.4025 30.182 12.4294C29.5331 12.4692 28.8788 12.5321 28.2367 12.6162C27.6952 12.6867 27.2792 13.1326 27.2472 13.6767C26.9874 18.067 26.9874 22.5195 27.2472 26.9104C27.2792 27.4542 27.6952 27.8998 28.2364 27.9702C30.2636 28.2339 32.3191 28.2817 34.3455 28.112C34.7236 28.0799 35.101 28.0408 35.4667 27.996L35.6682 27.9702C36.21 27.8998 36.626 27.4541 36.6581 26.9105V26.9104C36.9179 22.5195 36.9179 18.067 36.6581 13.6768C36.6261 13.1327 36.21 12.6867 35.6689 12.6163C35.2449 12.561 34.8167 12.5148 34.3958 12.4789C34.0281 12.4473 33.6558 12.4227 33.289 12.4058C32.8483 12.3846 32.3983 12.374 31.946 12.374V12.374Z" fill="#63AF7D"/>
</svg>
