<svg viewBox="0 0 45 42" fill="none" xmlns="http://www.w3.org/2000/svg">
<path d="M36.4934 7.47943H38.4965C38.7621 7.47943 39.0169 7.37391 39.2047 7.18608C39.3925 6.99826 39.4981 6.74351 39.4981 6.47788C39.4981 6.21225 39.3925 5.9575 39.2047 5.76967C39.0169 5.58184 38.7621 5.47632 38.4965 5.47632H36.4934C35.6965 5.47632 34.9322 5.79288 34.3688 6.35637C33.8053 6.91985 33.4887 7.6841 33.4887 8.48099V9.48255H32.4872C32.2215 9.48255 31.9668 9.58807 31.7789 9.7759C31.5911 9.96373 31.4856 10.2185 31.4856 10.4841C31.4856 10.7497 31.5911 11.0045 31.7789 11.1923C31.9668 11.3801 32.2215 11.4857 32.4872 11.4857H33.4887V14.4903C33.4887 14.756 33.5942 15.0107 33.7821 15.1985C33.9699 15.3864 34.2246 15.4919 34.4903 15.4919C34.7559 15.4919 35.0106 15.3864 35.1985 15.1985C35.3863 15.0107 35.4918 14.756 35.4918 14.4903V11.4857H36.4934C36.759 11.4857 37.0138 11.3801 37.2016 11.1923C37.3894 11.0045 37.4949 10.7497 37.4949 10.4841C37.4949 10.2185 37.3894 9.96373 37.2016 9.7759C37.0138 9.58807 36.759 9.48255 36.4934 9.48255H35.4918V8.48099C35.4918 8.21536 35.5973 7.96061 35.7852 7.77278C35.973 7.58495 36.2278 7.47943 36.4934 7.47943Z" fill="#1862A7"/>
<path d="M41.5014 1.47021H29.4827C28.6858 1.47021 27.9216 1.78678 27.3581 2.35026C26.7946 2.91375 26.478 3.678 26.478 4.47489V6.478C26.478 6.74363 26.5835 6.99838 26.7714 7.18621C26.9592 7.37404 27.214 7.47956 27.4796 7.47956C27.7452 7.47956 28 7.37404 28.1878 7.18621C28.3756 6.99838 28.4811 6.74363 28.4811 6.478V4.47489C28.4811 4.20926 28.5867 3.95451 28.7745 3.76668C28.9623 3.57885 29.2171 3.47333 29.4827 3.47333H41.5014C41.767 3.47333 42.0218 3.57885 42.2096 3.76668C42.3974 3.95451 42.5029 4.20926 42.5029 4.47489V16.4936C42.5029 16.7592 42.3974 17.014 42.2096 17.2018C42.0218 17.3896 41.767 17.4951 41.5014 17.4951H29.4827C29.2171 17.4951 28.9623 17.3896 28.7745 17.2018C28.5867 17.014 28.4811 16.7592 28.4811 16.4936V10.4842C28.4811 10.2186 28.3756 9.96385 28.1878 9.77602C28 9.58819 27.7452 9.48267 27.4796 9.48267C27.214 9.48267 26.9592 9.58819 26.7714 9.77602C26.5835 9.96385 26.478 10.2186 26.478 10.4842V16.4936C26.478 17.2905 26.7946 18.0547 27.3581 18.6182C27.9216 19.1817 28.6858 19.4982 29.4827 19.4982H41.5014C42.2983 19.4982 43.0625 19.1817 43.626 18.6182C44.1895 18.0547 44.5061 17.2905 44.5061 16.4936V4.47489C44.5061 3.678 44.1895 2.91375 43.626 2.35026C43.0625 1.78678 42.2983 1.47021 41.5014 1.47021V1.47021Z" fill="#1862A7"/>
<path d="M7.98267 30.8495C7.98267 31.6418 8.21763 32.4164 8.65784 33.0752C9.09805 33.7341 9.72373 34.2475 10.4558 34.5508C11.1878 34.854 11.9933 34.9333 12.7705 34.7787C13.5476 34.6242 14.2614 34.2426 14.8217 33.6823C15.382 33.122 15.7636 32.4082 15.9181 31.6311C16.0727 30.8539 15.9934 30.0484 15.6902 29.3164C15.3869 28.5843 14.8735 27.9586 14.2146 27.5184C13.5558 27.0782 12.7813 26.8433 11.9889 26.8433C10.9264 26.8433 9.90738 27.2653 9.15606 28.0167C8.40475 28.768 7.98267 29.787 7.98267 30.8495ZM13.992 30.8495C13.992 31.2457 13.8745 31.633 13.6544 31.9624C13.4343 32.2918 13.1215 32.5485 12.7555 32.7001C12.3894 32.8517 11.9867 32.8914 11.5981 32.8141C11.2095 32.7368 10.8526 32.5461 10.5725 32.2659C10.2923 31.9858 10.1016 31.6288 10.0243 31.2403C9.94698 30.8517 9.98665 30.449 10.1383 30.0829C10.2899 29.7169 10.5466 29.4041 10.876 29.184C11.2054 28.9639 11.5927 28.8464 11.9889 28.8464C12.5202 28.8464 13.0297 29.0574 13.4053 29.4331C13.781 29.8087 13.992 30.3182 13.992 30.8495Z" fill="#FE5371"/>
<path d="M17.998 21.8352H5.97928C5.18239 21.8352 4.41814 22.1518 3.85466 22.7153C3.29117 23.2787 2.97461 24.043 2.97461 24.8399V36.8586C2.97461 37.6555 3.29117 38.4197 3.85466 38.9832C4.41814 39.5467 5.18239 39.8632 5.97928 39.8632H17.998C18.7949 39.8632 19.5591 39.5467 20.1226 38.9832C20.6861 38.4197 21.0026 37.6555 21.0026 36.8586V34.8555C21.0026 34.5898 20.8971 34.3351 20.7093 34.1472C20.5215 33.9594 20.2667 33.8539 20.0011 33.8539C19.7355 33.8539 19.4807 33.9594 19.2929 34.1472C19.105 34.3351 18.9995 34.5898 18.9995 34.8555V36.8586C18.9995 37.1242 18.894 37.3789 18.7062 37.5668C18.5183 37.7546 18.2636 37.8601 17.998 37.8601H5.97928C5.71365 37.8601 5.4589 37.7546 5.27107 37.5668C5.08324 37.3789 4.97772 37.1242 4.97772 36.8586V24.8399C4.97772 24.5742 5.08324 24.3195 5.27107 24.1317C5.4589 23.9438 5.71365 23.8383 5.97928 23.8383H17.998C18.2636 23.8383 18.5183 23.9438 18.7062 24.1317C18.894 24.3195 18.9995 24.5742 18.9995 24.8399V30.8492C18.9995 31.1149 19.105 31.3696 19.2929 31.5574C19.4807 31.7453 19.7355 31.8508 20.0011 31.8508C20.2667 31.8508 20.5215 31.7453 20.7093 31.5574C20.8971 31.3696 21.0026 31.1149 21.0026 30.8492V24.8399C21.0026 24.043 20.6861 23.2787 20.1226 22.7153C19.5591 22.1518 18.7949 21.8352 17.998 21.8352V21.8352Z" fill="#FE5371"/>
<path d="M6.91775 13.3389C7.07714 13.4377 7.26106 13.4898 7.44858 13.4892C7.60537 13.4882 7.75974 13.4505 7.89928 13.379L13.9086 10.3743C14.0727 10.2903 14.2104 10.1626 14.3065 10.0053C14.4026 9.84803 14.4535 9.66727 14.4535 9.48294C14.4535 9.2986 14.4026 9.11784 14.3065 8.96057C14.2104 8.80329 14.0727 8.6756 13.9086 8.59155L7.89928 5.58688C7.74682 5.51005 7.57724 5.47347 7.40666 5.48061C7.23608 5.48776 7.07016 5.53839 6.92465 5.6277C6.77914 5.71701 6.65888 5.84204 6.57529 5.9909C6.49169 6.13977 6.44754 6.30753 6.44702 6.47826V12.4876C6.44668 12.6578 6.48973 12.8253 6.57209 12.9743C6.65445 13.1232 6.77342 13.2487 6.91775 13.3389V13.3389ZM8.45014 8.10079L11.2144 9.48294L8.45014 10.8651V8.10079Z" fill="#FF2E2E"/>
<path d="M9.45152 18.4968C11.2343 18.4968 12.9771 17.9681 14.4594 16.9777C15.9418 15.9872 17.0971 14.5794 17.7794 12.9323C18.4616 11.2852 18.6401 9.47277 18.2923 7.72422C17.9445 5.97568 17.086 4.36953 15.8254 3.1089C14.5648 1.84827 12.9586 0.989764 11.2101 0.641956C9.46152 0.294148 7.6491 0.472656 6.002 1.15491C4.35491 1.83715 2.94711 2.9925 1.95664 4.47485C0.966163 5.9572 0.4375 7.69997 0.4375 9.48277C0.4375 11.8734 1.38719 14.1662 3.07764 15.8566C4.7681 17.5471 7.06085 18.4968 9.45152 18.4968V18.4968ZM9.45152 2.47187C10.8381 2.47187 12.1936 2.88305 13.3466 3.65342C14.4995 4.42379 15.3981 5.51874 15.9287 6.79981C16.4594 8.08089 16.5982 9.49055 16.3277 10.8505C16.0572 12.2105 15.3895 13.4597 14.409 14.4402C13.4285 15.4207 12.1793 16.0884 10.8193 16.359C9.45929 16.6295 8.04964 16.4906 6.76856 15.96C5.48749 15.4294 4.39253 14.5308 3.62216 13.3778C2.8518 12.2249 2.44061 10.8694 2.44061 9.48277C2.44061 7.62336 3.17926 5.84011 4.49406 4.52531C5.80886 3.21051 7.59211 2.47187 9.45152 2.47187V2.47187Z" fill="#FF2E2E"/>
<path d="M32.9547 42C34.7375 42 36.4803 41.4713 37.9626 40.4808C39.445 39.4904 40.6003 38.0826 41.2826 36.4355C41.9648 34.7884 42.1433 32.9759 41.7955 31.2274C41.4477 29.4788 40.5892 27.8727 39.3286 26.6121C38.0679 25.3514 36.4618 24.4929 34.7132 24.1451C32.9647 23.7973 31.1523 23.9758 29.5052 24.6581C27.8581 25.3403 26.4503 26.4957 25.4598 27.978C24.4693 29.4604 23.9407 31.2031 23.9407 32.9859C23.9407 35.3766 24.8904 37.6694 26.5808 39.3598C28.2713 41.0503 30.564 42 32.9547 42V42ZM32.9547 25.975C34.3413 25.975 35.6968 26.3862 36.8497 27.1566C38.0027 27.927 38.9013 29.0219 39.4319 30.303C39.9626 31.5841 40.1014 32.9937 39.8309 34.3537C39.5604 35.7137 38.8926 36.9629 37.9121 37.9434C36.9317 38.9239 35.6824 39.5916 34.3224 39.8621C32.9625 40.1327 31.5528 39.9938 30.2717 39.4632C28.9907 38.9325 27.8957 38.0339 27.1253 36.881C26.355 35.7281 25.9438 34.3726 25.9438 32.9859C25.9438 31.1265 26.6824 29.3433 27.9972 28.0285C29.312 26.7137 31.0953 25.975 32.9547 25.975V25.975Z" fill="#1CC4E9"/>
<path d="M32.1728 36.3749C35.2372 36.3749 36.9129 33.7717 36.9129 31.5145C36.9129 31.4405 36.9115 31.3669 36.9082 31.2937C37.2335 31.0525 37.5162 30.7516 37.7393 30.4091C37.4408 30.5452 37.1195 30.6367 36.7825 30.6781C37.1265 30.4665 37.3906 30.132 37.5151 29.7332C37.1932 29.9289 36.8367 30.0711 36.4572 30.1478C36.1532 29.8158 35.7204 29.6082 35.2411 29.6082C34.3211 29.6082 33.575 30.3731 33.575 31.3162C33.575 31.4503 33.5897 31.5806 33.6182 31.7057C32.2336 31.6342 31.0058 30.9545 30.1842 29.9209C30.0412 30.1733 29.9587 30.4666 29.9587 30.7795C29.9587 31.3721 30.2528 31.8954 30.7 32.2014C30.4267 32.1928 30.1699 32.1159 29.9455 31.9878C29.9452 31.995 29.9452 32.002 29.9452 32.0096C29.9452 32.8369 30.5195 33.5277 31.2819 33.6842C31.1419 33.7233 30.9945 33.7443 30.8426 33.7443C30.7354 33.7443 30.6309 33.7335 30.5294 33.7135C30.7415 34.3922 31.3566 34.8861 32.0857 34.9C31.5155 35.3582 30.7972 35.6312 30.0166 35.6312C29.8823 35.6312 29.7495 35.6233 29.6191 35.6075C30.3565 36.0921 31.232 36.3749 32.1729 36.3749" fill="#1CC4E9"/>
</svg>
